<svg version="1.1" xmlns="http://www.w3.org/2000/svg" width="32" height="32" viewBox="0 0 32 32">
    <path d="M16.706 24.363h-3.495v-8.241h-1.746v-2.84h1.746v-1.705c0-2.317 0.986-3.695 3.788-3.695h2.332v2.841h-1.458c-1.091 0-1.163 0.397-1.163 1.137l-0.005 1.421h2.641l-0.309 2.84h-2.332v8.241h0.001zM15.764 29.395c7.528 0 13.631-6.103 13.631-13.631s-6.103-13.631-13.631-13.631c-7.528 0-13.631 6.103-13.631 13.631s6.103 13.631 13.631 13.631zM15.764 31.529c-8.706 0-15.764-7.058-15.764-15.764s7.058-15.764 15.764-15.764c8.706 0 15.764 7.058 15.764 15.764s-7.058 15.764-15.764 15.764z"></path>
</svg>