<svg version="1.1" xmlns="http://www.w3.org/2000/svg" width="32" height="32" viewBox="0 0 32 32">
    <path d="M22.201 12.251c0.647-0.408 1.144-1.056 1.377-1.828-0.606 0.379-1.276 0.653-1.99 0.802-0.57-0.643-1.385-1.044-2.287-1.044-1.73 0-3.132 1.48-3.132 3.304 0 0.259 0.026 0.511 0.080 0.753-2.603-0.138-4.912-1.452-6.458-3.453-0.27 0.49-0.424 1.057-0.424 1.662 0 1.146 0.553 2.158 1.394 2.751-0.514-0.017-0.997-0.167-1.42-0.413v0.041c0 1.602 1.079 2.938 2.515 3.24-0.264 0.078-0.54 0.116-0.827 0.116-0.202 0-0.399-0.020-0.589-0.059 0.398 1.312 1.555 2.269 2.927 2.295-1.073 0.887-2.424 1.414-3.891 1.414-0.253 0-0.503-0.014-0.748-0.045 1.387 0.937 3.034 1.484 4.803 1.484 5.764 0 8.914-5.036 8.914-9.403 0-0.144-0.002-0.286-0.008-0.427 0.612-0.466 1.145-1.049 1.563-1.711-0.562 0.263-1.166 0.441-1.799 0.52zM16 29.867c7.658 0 13.867-6.208 13.867-13.867s-6.208-13.867-13.867-13.867c-7.658 0-13.867 6.208-13.867 13.867s6.208 13.867 13.867 13.867zM16 32c-8.837 0-16-7.163-16-16s7.163-16 16-16c8.837 0 16 7.163 16 16s-7.163 16-16 16z"></path>
</svg>