<svg id="wrenIcons_logo" width="472px" height="160px" viewBox="0 0 472 160" version="1.1"
           xmlns="http://www.w3.org/2000/svg">
        <g stroke="none" stroke-width="1" fill="none" fill-rule="evenodd">
          <g id="wren_kitchens_logo-white" fill="#FFFFFF" fill-rule="nonzero">
            <g>
              <path d="M126.6,13.2 C133.9,8.4 138.8,6.9 149.6,8.4 C155.6,9.3 159.2,12.5 166.6,16.5 C168.5,8.8 169.1,5.6 169.1,5.6 L127.6,5.6 L126.6,13.2 Z"
                    id="Shape"></path>
              <path d="M133.7,40.4 C131.4,34.4 131.8,24.6 125.4,20.4 L118.4,64 L118,64 L108,5.7 L60,5.7 L49.4,64 L49,64 L41.8,5.7 L0.3,5.7 L19.3,95.5 L57.4,95.5 C70.6,95.4 74.4,84.6 75.7,77.1 C77.1,69.6 83,38.2 83,38.2 L83.4,38.2 L94.1,95.5 L133.2,95.5 C145.2,95.5 150,83.2 151.6,77.1 C152,75.4 153,72.2 155,64 C144.4,60.3 137.5,50.1 133.7,40.4 Z"
                    id="Shape"></path>
              <path d="M198.9,22.3 C206.3,19.6 212.6,14 220.4,7.7 L220.4,5.6 L177.1,5.6 L177.1,21.3 C183.5,23.5 191.5,25 198.9,22.3 Z"
                    id="Shape"></path>
              <path d="M177.1,95.6 L201.9,95.6 C220.4,95.6 220.4,77.2 220.4,77.2 L220.4,48.5 C220.4,42.8 223.3,37.2 231.5,37.2 C239.2,37.2 244.6,38.5 249.6,39.7 L249.6,7.1 C246.1,4.4 245.1,3.7 239.3,4 C239.3,4 237.3,4.2 233.9,7 C232.5,8.3 231.6,9.2 230.8,9.9 C230.8,9.9 229.3,11.3 227.6,13.1 C226.2,14.5 224.7,15.8 222.6,17.9 C219.4,21 215.6,24.4 211.8,28.1 C212.4,28.1 211,28 211.8,28.1 C211.8,28.1 211.8,28.1 218.1,27 C214,31.4 214,31.3 211.7,33.6 C213.9,32.8 213.9,32.7 216.3,31.9 C211.3,38.6 211.3,38.8 206.9,44.5 C209.8,47.2 209.8,47.3 213.9,51.1 C207.1,51.1 207.1,51.1 201.7,51.1 C194.5,57.3 185.4,64 179.8,67.1 L178.4,68 L177.3,69.3 L177.1,95.6 Z"
                    id="Shape"></path>
              <path d="M310.5,0.5 C278.3,0.5 257.4,16.6 257.4,47.6 C257.4,83.9 281,95.7 307.3,95.7 C340.9,95.7 356.5,84.6 359.7,64.2 L321.8,64.2 C320.5,70.6 315.9,73.5 311.1,73.5 C302.5,73.5 298.9,69 298.9,58.6 L298.9,55.9 L360.8,55.9 L360.8,49.8 C360.8,17.8 344.5,0.5 310.5,0.5 Z M321.8,37 L298.9,37 L298.9,35.7 C298.9,27.1 303.6,22.6 310.5,22.6 C317.3,22.6 321.8,27.1 321.8,35.7 L321.8,37 Z"
                    id="Shape"></path>
              <path d="M440.5,3 C430.3,3 419.6,6.4 412.2,19.3 L411.8,19.3 L411.8,5.7 L368.5,5.7 L368.5,95.5 L393.4,95.5 C411.8,95.5 411.8,77.1 411.8,77.1 L411.8,39.5 C411.8,32.3 415.6,29.5 420.4,29.5 C425.6,29.5 428.3,33.3 428.3,39.9 L428.3,95.5 L453.2,95.5 C471.600569,95.5 471.6,77.1 471.6,77.1 L471.6,35.7 C471.7,12 458.6,3 440.5,3 Z"
                    id="Shape"></path>
            </g>
            <g transform="translate(63.000000, 119.000000)">
              <polygon id="Shape"
                       points="22.3 0.6 29.4 0.6 12.3 19.3 33.6 40 25.9 40 5.7 20.5 5.7 40 0 40 0 0.5 5.7 0.5 5.7 18.6"></polygon>
              <polygon id="Shape" points="49.5 0.6 55.2 0.6 55.2 40.1 49.5 40.1 49.5 0.6"></polygon>
              <polygon id="Shape"
                       points="72.2 0.5 105.2 0.5 105.2 5.5 91.4 5.5 91.4 40 85.7 40 85.7 5.5 72.2 5.5"></polygon>
              <path d="M156.1,30.9 L156.1,37.1 C152,39.4 147.2,40.5 141.7,40.5 C137.3,40.5 133.5,39.6 130.5,37.8 C127.4,36 125,33.6 123.2,30.5 C121.4,27.4 120.5,24 120.5,20.4 C120.5,14.7 122.5,9.8 126.6,5.9 C130.7,2 135.8,-5.68434189e-14 141.8,-5.68434189e-14 C145.9,-5.68434189e-14 150.6,1.1 155.6,3.3 L155.6,9.4 C151,6.8 146.5,5.4 142.1,5.4 C137.6,5.4 133.8,6.8 130.8,9.7 C127.8,12.6 126.3,16.1 126.3,20.4 C126.3,24.7 127.8,28.3 130.7,31.1 C133.6,33.9 137.4,35.3 142,35.3 C146.9,35.3 151.5,33.9 156.1,30.9 Z"
                    id="Shape"></path>
              <polygon id="Shape"
                       points="202.5 0.6 208.2 0.6 208.2 40.1 202.5 40.1 202.5 22.9 180.3 22.9 180.3 40.1 174.6 40.1 174.6 0.6 180.3 0.6 180.3 17.7 202.5 17.7"></polygon>
              <polygon id="Shape"
                       points="228.4 0.6 250.8 0.6 250.8 5.6 234.1 5.6 234.1 17.6 250.3 17.6 250.3 22.7 234.1 22.7 234.1 35 251.4 35 251.4 40 228.5 40 228.5 0.6"></polygon>
              <polygon id="Shape"
                       points="300.3 0.6 305.7 0.6 305.7 40.1 300.8 40.1 274.4 9.7 274.4 40.1 269.1 40.1 269.1 0.6 273.7 0.6 300.3 31.3 300.3 0.6"></polygon>
              <path d="M335.5,23.5 L331.2,20.9 C328.5,19.3 326.6,17.6 325.4,16 C324.3,14.4 323.7,12.6 323.7,10.5 C323.7,7.4 324.8,4.9 326.9,2.9 C329.1,1 331.9,0 335.3,0 C338.6,0 341.6,0.9 344.4,2.8 L344.4,9.2 C341.6,6.5 338.5,5.1 335.2,5.1 C333.4,5.1 331.8,5.5 330.6,6.4 C329.4,7.3 328.8,8.3 328.8,9.7 C328.8,10.9 329.2,12 330.1,13 C331,14 332.4,15.1 334.3,16.3 L338.6,18.9 C343.4,21.8 345.8,25.4 345.8,29.9 C345.8,33.1 344.7,35.6 342.6,37.6 C340.5,39.6 337.7,40.6 334.3,40.6 C330.4,40.6 326.8,39.4 323.6,37 L323.6,29.8 C326.7,33.7 330.2,35.6 334.2,35.6 C336,35.6 337.4,35.1 338.6,34.1 C339.8,33.1 340.4,31.9 340.4,30.4 C340.7,28 339,25.7 335.5,23.5 Z"
                    id="Shape"></path>
            </g>
          </g>
        </g>
      </svg>
